<?xml version="1.0" standalone="no"?>
<!DOCTYPE svg PUBLIC "-//W3C//DTD SVG 20010904//EN"
 "http://www.w3.org/TR/2001/REC-SVG-20010904/DTD/svg10.dtd">
<svg version="1.0" xmlns="http://www.w3.org/2000/svg"
 width="768.000000pt" height="825.000000pt" viewBox="0 0 768.000000 825.000000"
 preserveAspectRatio="xMidYMid meet">
<metadata>
Created by potrace 1.16, written by Peter Selinger 2001-2019
</metadata>
<g transform="translate(0.000000,825.000000) scale(0.100000,-0.100000)"
fill="#000000" stroke="none">
<path d="M3025 7552 c-93 -43 -140 -71 -273 -166 -265 -189 -391 -325 -484
-522 -83 -178 -82 -288 6 -473 58 -123 104 -285 121 -434 6 -47 10 -55 21 -46
8 6 14 8 14 5 0 -4 12 5 27 19 16 14 29 21 31 15 5 -15 103 -12 190 6 70 14
173 61 187 85 10 15 -8 10 -43 -11 -46 -28 -111 -50 -118 -39 -2 5 7 11 21 15
18 4 25 13 25 31 0 18 4 24 15 19 9 -3 15 0 15 8 0 8 12 16 28 19 51 9 166 47
176 57 10 10 0 23 -29 33 -5 3 -6 8 -2 13 4 4 17 3 27 -4 32 -20 46 -14 74 29
20 30 24 44 16 53 -5 8 -8 21 -4 30 3 9 -1 27 -10 41 -9 13 -16 30 -16 38 0
13 -65 77 -79 77 -4 0 -13 9 -21 20 -8 11 -20 20 -28 20 -7 0 -15 7 -18 15 -4
8 -12 15 -19 15 -7 0 -15 7 -19 15 -3 9 -18 15 -35 15 -29 0 -133 -24 -150
-34 -5 -3 -24 -8 -42 -10 -19 -3 -42 -8 -51 -11 -10 -4 -18 -3 -18 3 0 12 -61
-15 -72 -32 -12 -17 -9 3 2 25 6 10 7 19 2 19 -5 0 -9 17 -10 37 -1 21 -8 43
-16 48 -9 7 -12 21 -9 38 3 17 1 27 -6 27 -7 0 -9 5 -4 13 4 6 6 20 5 29 -6
34 77 186 92 170 4 -3 4 1 0 11 -14 37 117 191 201 234 17 9 32 19 35 22 3 4
71 39 152 79 143 71 234 106 249 96 4 -2 10 0 14 6 15 25 225 1 280 -32 17
-10 48 -26 70 -37 22 -10 99 -62 170 -115 165 -123 210 -166 173 -166 -8 0 -9
-3 -3 -8 6 -4 16 -17 23 -29 11 -20 10 -23 -5 -23 -13 0 -10 -7 15 -29 17 -17
32 -35 32 -40 0 -6 7 -11 15 -11 8 0 15 -5 15 -11 0 -15 132 -159 141 -153 17
10 48 -55 54 -110 3 -32 12 -64 20 -73 11 -10 12 -19 5 -33 -14 -26 -12 -62 5
-84 8 -11 15 -29 15 -40 0 -12 6 -33 14 -47 8 -15 16 -62 20 -105 3 -44 9 -80
13 -81 5 -2 6 -24 4 -50 -2 -27 -5 -160 -5 -298 -1 -216 -3 -254 -18 -281 -10
-17 -24 -34 -33 -37 -8 -4 -15 -13 -15 -21 0 -8 -9 -18 -20 -21 -25 -8 -26
-22 -2 -28 13 -3 9 -8 -15 -18 -17 -7 -34 -22 -37 -33 -3 -11 -9 -17 -13 -13
-4 4 -14 -7 -23 -24 -8 -18 -22 -35 -30 -37 -13 -4 -12 -2 1 14 18 21 15 44
-6 44 -8 0 -15 -10 -17 -22 -2 -18 -9 -22 -29 -20 -23 2 -30 -5 -57 -60 -17
-35 -32 -59 -32 -53 0 5 -7 -1 -16 -13 -8 -12 -13 -26 -9 -31 8 -13 -42 -64
-54 -56 -7 4 -11 -4 -11 -19 0 -14 -5 -26 -11 -26 -8 0 -8 -5 1 -15 8 -10 9
-15 1 -15 -6 0 -13 -11 -17 -25 -3 -14 -10 -22 -15 -19 -5 3 -9 -4 -9 -15 0
-12 -6 -21 -13 -21 -17 0 -38 -36 -31 -55 4 -9 3 -15 -2 -13 -5 2 -39 -14 -76
-35 -36 -20 -79 -38 -95 -40 -16 -2 -34 -7 -41 -11 -7 -4 -12 -2 -12 5 0 10
-3 10 -11 2 -8 -8 -19 -9 -38 -2 -17 7 -27 7 -29 0 -2 -7 -10 -5 -19 4 -12 12
-18 13 -30 4 -18 -15 -161 -21 -169 -7 -4 6 -9 6 -14 -2 -5 -8 -15 -10 -26 -5
-11 5 -22 7 -27 7 -4 -1 -25 9 -47 23 -28 18 -42 35 -47 56 -3 17 -12 33 -19
36 -8 3 -14 12 -14 21 0 22 -32 92 -43 92 -5 0 -20 9 -34 20 -31 24 -78 28
-69 5 3 -8 2 -15 -3 -15 -14 0 -75 63 -90 93 -8 15 -18 27 -23 27 -14 0 -33
23 -36 44 -2 10 -15 29 -29 42 -23 22 -23 29 0 25 4 -1 1 15 -7 34 -26 62 12
111 51 65 10 -11 25 -20 34 -20 10 0 20 -6 22 -12 3 -7 6 -4 7 7 1 16 4 15 17
-10 24 -48 119 -125 151 -125 13 0 52 27 92 64 30 27 79 46 125 48 56 2 46 17
-13 20 -42 1 -63 23 -47 48 9 14 52 12 58 -2 3 -10 8 -9 18 3 8 9 29 22 48 29
30 12 35 12 47 -5 13 -17 14 -17 14 -1 0 15 10 17 78 16 42 0 86 0 96 0 11 1
23 -5 28 -12 8 -10 11 -10 15 0 6 15 33 16 33 1 0 -5 4 -8 9 -5 5 3 8 -5 7
-19 -1 -19 -4 -22 -11 -13 -15 19 -45 21 -45 3 0 -8 -10 -16 -22 -17 -48 -3
-76 -7 -162 -22 -49 -8 -92 -18 -95 -22 -9 -10 148 4 189 16 19 6 80 10 135 8
102 -2 225 22 225 45 0 5 13 7 29 4 37 -8 58 16 55 61 -1 18 2 35 7 38 5 3 -4
19 -21 35 -16 17 -34 27 -40 24 -6 -3 -13 1 -16 9 -3 9 -15 16 -26 16 -13 0
-18 5 -15 14 3 8 -1 20 -9 26 -11 10 -14 9 -14 -8 0 -12 -4 -24 -10 -27 -6 -3
-10 1 -10 9 0 8 -5 18 -11 22 -8 4 -9 -1 -4 -17 7 -23 6 -23 -15 4 -22 28 -44
29 -33 1 3 -8 2 -14 -3 -13 -5 1 -18 1 -29 0 -15 -1 -16 -4 -7 -10 7 -4 12
-12 11 -17 -4 -21 2 -34 16 -34 8 0 15 -5 15 -10 0 -21 -31 -21 -96 -1 -83 26
-83 26 -111 0 -31 -30 -169 -41 -179 -15 -4 10 -18 16 -35 16 -42 0 -36 15 14
34 45 17 107 65 107 82 0 18 43 49 94 68 28 11 59 29 71 42 22 23 57 119 47
129 -3 3 -27 2 -54 -1 -31 -4 -53 -2 -62 5 -8 7 -37 13 -65 14 -28 1 -51 5
-51 9 0 10 -38 -3 -51 -18 -6 -8 -29 -14 -51 -14 -22 0 -37 -4 -33 -10 8 -13
-56 9 -76 26 -27 24 -68 17 -86 -14 -9 -16 -35 -38 -57 -48 l-41 -20 -3 -90
c-2 -66 1 -98 13 -120 8 -16 15 -23 15 -15 0 11 3 11 15 1 19 -16 15 -32 -8
-36 -22 -3 -41 22 -33 43 6 15 4 15 -11 -2 -11 -11 -22 -28 -25 -37 -8 -19
-48 -20 -48 -1 0 16 -22 17 -38 1 -6 -6 -14 -10 -16 -7 -5 5 7 62 19 92 9 22
-17 23 -39 2 -8 -8 -19 -15 -25 -15 -6 0 -11 -4 -11 -10 0 -5 -6 -10 -14 -10
-7 0 -19 -7 -26 -15 -21 -25 -120 -11 -120 18 0 5 -9 7 -19 4 -11 -3 -28 3
-40 14 -11 11 -24 20 -28 21 -15 4 -53 56 -53 73 0 9 -4 13 -10 10 -5 -3 -10
1 -10 9 0 9 -4 16 -8 16 -5 0 -9 8 -9 18 1 54 -4 82 -14 82 -7 0 -9 -10 -5
-25 4 -16 2 -25 -5 -25 -9 0 -11 -45 -6 -177 10 -308 61 -445 238 -640 124
-137 226 -410 186 -495 -8 -18 -26 -58 -40 -88 -35 -80 -163 -198 -271 -249
-138 -66 -187 -87 -391 -166 -109 -42 -241 -95 -294 -119 -53 -24 -204 -91
-336 -151 -132 -59 -282 -121 -334 -138 -104 -34 -150 -66 -183 -130 -33 -66
-58 -209 -58 -340 0 -79 -5 -129 -14 -152 -48 -114 -93 -334 -111 -541 -17
-196 -20 -214 -58 -324 -16 -46 -32 -127 -41 -210 -11 -90 -26 -165 -46 -225
-26 -77 -32 -114 -40 -250 -6 -88 -15 -203 -20 -255 -6 -52 -15 -138 -21 -190
-5 -52 -14 -221 -19 -375 -6 -154 -14 -316 -20 -360 -5 -44 -9 -97 -9 -117
l-1 -38 3110 0 3110 0 -3 1078 c-2 809 -6 1089 -16 1127 -6 28 -23 104 -36
170 -70 352 -76 373 -184 603 l-81 173 0 87 c-1 103 -11 155 -49 237 -49 104
-128 174 -199 175 -29 0 -196 53 -412 130 -91 33 -210 73 -265 89 -56 17 -169
59 -253 95 -84 36 -208 84 -275 107 -232 78 -317 129 -448 265 -44 47 -80 98
-112 161 -26 51 -52 95 -58 99 -8 4 -8 1 -1 -12 21 -42 35 -159 29 -258 -4
-74 -15 -133 -41 -221 -50 -166 -103 -317 -141 -400 -18 -38 -85 -230 -150
-425 -64 -195 -122 -366 -128 -380 -5 -14 -11 -32 -12 -40 -4 -36 -58 -190
-65 -183 -3 4 -17 46 -30 93 -13 47 -44 150 -70 230 -26 80 -53 169 -60 198
-12 52 -12 54 17 90 16 20 41 58 56 84 14 25 37 65 52 88 17 28 25 50 21 65
-9 37 -81 136 -139 194 l-55 53 -51 -7 c-47 -6 -53 -10 -77 -51 -14 -24 -38
-76 -54 -116 l-28 -73 22 -40 c13 -22 31 -69 41 -105 9 -36 26 -82 36 -102 26
-52 24 -72 -15 -137 -59 -96 -114 -214 -130 -279 -17 -65 -35 -254 -36 -387
l-1 -80 -59 230 c-32 127 -66 259 -76 295 -9 36 -18 72 -19 80 -7 56 -30 138
-42 152 -9 10 -19 34 -23 55 -19 93 -111 436 -138 511 -16 46 -27 93 -24 104
3 13 1 19 -5 15 -5 -3 -10 -1 -10 6 -1 7 -15 65 -32 129 -27 103 -48 217 -65
340 -2 21 -1 40 5 43 5 3 6 -2 3 -12 -5 -14 -4 -15 4 -4 7 10 7 21 1 32 -5 10
-9 27 -9 39 0 16 9 10 47 -32 54 -61 161 -153 218 -188 79 -47 402 -298 474
-367 26 -25 41 -29 41 -12 0 5 4 8 8 5 5 -3 18 2 28 12 97 86 198 174 294 254
143 119 212 192 275 288 89 136 89 138 86 435 -3 344 19 504 71 521 l23 7 -23
8 c-21 8 -22 14 -22 121 0 123 11 179 40 206 28 26 41 68 39 126 -2 55 23 120
44 113 7 -2 19 -18 28 -36 l16 -33 11 28 c32 84 33 100 15 149 -34 92 -63 84
-132 -37 -29 -50 -43 -64 -64 -66 -26 -3 -27 -1 -27 42 0 53 10 83 40 114 17
18 19 26 10 37 -13 16 -22 137 -19 270 4 178 2 211 -26 310 -54 193 -120 304
-251 422 -166 150 -270 233 -397 318 -48 32 -60 37 -67 25 -8 -13 -10 -12 -10
2 0 20 -77 62 -198 109 -69 26 -88 29 -187 29 -105 -1 -113 -3 -190 -38z
m-282 -1196 c57 -13 137 -58 137 -76 0 -6 -14 -10 -30 -10 -26 0 -29 -2 -18
-14 7 -8 16 -12 21 -9 17 10 5 -10 -23 -37 -23 -22 -42 -31 -78 -34 -26 -2
-49 0 -53 5 -3 6 -16 6 -33 -1 -15 -5 -34 -10 -43 -10 -12 0 -12 3 4 18 10 9
14 14 9 10 -13 -10 -26 -10 -26 0 0 12 72 50 116 62 38 10 38 10 -11 5 -27 -3
-72 -16 -100 -30 -27 -13 -51 -23 -52 -21 -7 7 10 36 18 31 4 -3 2 7 -6 22
-20 39 -19 61 5 68 11 4 17 11 14 17 -5 7 2 9 20 4 15 -4 26 -2 26 4 0 14 34
12 103 -4z"/>
<path d="M3760 6685 c8 -9 9 -15 2 -15 -6 0 -13 4 -16 9 -3 5 -61 7 -128 6
-116 -3 -180 -15 -177 -32 3 -20 -2 -34 -10 -29 -5 3 -12 -2 -15 -11 -6 -14
-9 -15 -15 -4 -5 8 -12 -13 -17 -55 -7 -62 -8 -66 -15 -34 l-6 35 -2 -43 c-1
-38 16 -129 25 -141 2 -2 13 4 24 14 23 20 22 21 24 -58 1 -38 6 -61 16 -67
11 -7 11 -12 2 -23 -17 -20 -5 -27 52 -27 38 0 47 -3 38 -12 -37 -37 99 -94
213 -89 26 1 28 3 13 14 -14 11 -4 15 64 25 119 19 132 26 125 65 -3 17 -3 26
0 20 6 -17 27 -17 20 0 -3 8 4 13 20 12 35 0 69 45 55 72 -6 10 -14 48 -18 83
-4 36 -12 68 -17 72 -6 3 -10 30 -9 58 1 40 -2 51 -13 46 -9 -3 -12 0 -9 8 12
32 -138 116 -207 116 -27 0 -30 -2 -19 -15z m62 -104 c12 0 17 3 11 6 -7 2
-13 9 -13 14 0 4 7 6 16 2 9 -3 14 -13 11 -24 -6 -22 3 -24 22 -6 11 10 13 8
8 -10 -4 -19 -2 -21 18 -13 14 5 27 4 34 -3 17 -17 13 -29 -9 -22 -11 4 -20 2
-20 -4 0 -6 5 -11 10 -11 6 0 8 -11 6 -25 -3 -13 -2 -24 2 -24 19 3 23 -2 13
-15 -13 -15 -4 -38 28 -78 9 -11 10 -18 3 -18 -6 0 -14 5 -17 10 -8 13 -86 53
-91 47 -3 -3 9 -16 26 -30 16 -14 30 -28 30 -30 0 -5 -27 -2 -87 7 -18 3 -35
0 -39 -6 -4 -7 -9 -6 -15 3 -6 10 -13 11 -31 2 -24 -12 -177 -15 -158 -3 7 4
11 11 9 16 -1 5 18 19 42 32 36 18 39 21 14 16 -16 -4 -45 -13 -64 -21 -19 -7
-37 -10 -40 -5 -3 5 -18 12 -33 16 -16 3 -28 11 -28 17 0 25 30 79 44 79 9 0
16 4 16 9 0 5 20 20 45 32 25 12 45 26 45 31 0 4 7 8 15 8 8 0 15 7 15 16 0
12 8 15 35 11 19 -3 38 -1 41 4 3 5 18 0 34 -11 15 -11 39 -20 52 -19z"/>
<path d="M3080 5205 c-10 -13 -9 -19 8 -34 26 -22 20 -31 -15 -25 -15 3 -30
-1 -34 -8 -6 -9 -9 -7 -9 7 0 16 -2 17 -9 5 -6 -8 -7 -18 -5 -22 3 -4 0 -8 -5
-8 -6 0 -11 5 -11 11 0 5 -4 8 -8 5 -11 -7 -12 -86 -1 -86 5 0 6 -6 4 -12 -6
-16 1 -26 41 -59 30 -24 39 -26 142 -27 86 -1 114 2 126 13 18 18 36 19 36 3
1 -7 6 -3 13 10 7 12 16 19 21 15 9 -10 66 -13 66 -4 0 4 24 7 52 6 50 0 53 2
68 33 9 19 22 37 29 42 19 11 4 30 -25 30 -18 0 -24 5 -24 21 0 19 -4 20 -52
16 -45 -4 -74 -9 -98 -17 -3 -1 -34 -2 -68 -2 -42 0 -69 5 -80 15 -10 9 -30
19 -45 23 -16 3 -31 13 -34 20 -3 8 -20 14 -40 14 -27 0 -34 3 -29 15 7 19 2
19 -14 0z"/>
</g>
</svg>
